<?xml version="1.0" encoding="UTF-8" standalone="no"?>
<!DOCTYPE svg PUBLIC "-//W3C//DTD SVG 1.1//EN" "http://www.w3.org/Graphics/SVG/1.1/DTD/svg11.dtd">
<svg width="100%" height="100%" viewBox="0 0 700 700" version="1.1" xmlns="http://www.w3.org/2000/svg" xmlns:xlink="http://www.w3.org/1999/xlink" xml:space="preserve" xmlns:serif="http://www.serif.com/" style="fill-rule:evenodd;clip-rule:evenodd;">
    <g transform="matrix(0.682996,0,0,0.682996,0,0)">
        <rect id="ArtBoard1" x="0" y="0" width="1024" height="1024" style="fill:none;"/>
        <g id="ArtBoard11" serif:id="ArtBoard1">
            <g transform="matrix(1.46414,0,0,1.46414,0,0)">
                <g transform="matrix(1,0,0,1,-164.552,-162.393)">
                    <path d="M332.44,661.73C330.273,669.077 328.047,676.46 325.76,683.88C314.98,718.88 297.82,752.79 278.04,783.53C277.853,783.817 277.893,784.063 278.16,784.27L306.54,806.34C306.849,806.574 307.264,806.62 307.62,806.46C311.853,804.547 315.967,802.38 319.96,799.96C372.51,768.08 421.53,732.19 468.75,692.93C494.883,671.197 518.737,647.163 540.31,620.83C545.12,614.96 550.08,609.09 551.9,601.43C554.01,592.58 551.31,582.1 541.64,579.28C541.317,579.18 541.133,578.834 541.23,578.51C541.577,577.377 542.113,576.303 542.84,575.29C549.433,566.083 556.177,556.88 563.07,547.68C563.263,547.427 563.497,547.387 563.77,547.56L591.92,565.72C592.715,566.234 593.251,567.066 593.39,568L602.44,629.75C602.507,630.19 602.76,630.37 603.2,630.29C613.21,628.33 624.78,625.99 633.38,622.4C662.97,610.03 672.11,584.22 676.77,554.5C680.16,532.93 682.65,511.09 686.9,489.68C689.973,474.187 692.69,458.633 695.05,443.02C695.61,439.35 696.73,436.25 698.87,433.6C715.21,413.42 731.413,393.097 747.48,372.63C747.713,372.337 747.813,372.007 747.78,371.64C747.12,364.68 745.693,351.967 743.5,333.5C737.967,286.913 732.097,240.403 725.89,193.97C725.823,193.463 725.537,193.243 725.03,193.31L550.33,217.21C550.043,217.25 549.807,217.383 549.62,217.61C525.527,247.91 501.233,278.047 476.74,308.02C474.893,310.287 473.557,311.62 472.73,312.02C460.15,318.12 447.547,324.18 434.92,330.2C424.29,335.26 415.94,341.89 407.51,349.6C386.99,368.4 362.75,387.23 347.83,410.32C336.36,428.07 335.01,447.04 335.09,467.07C335.09,467.093 335.091,467.116 335.093,467.139C335.136,467.686 335.617,468.101 336.158,468.058C336.182,468.056 336.206,468.054 336.23,468.05C362.39,464.23 387.83,457.26 413.22,450.25C413.825,450.085 414.469,450.183 414.99,450.52L445.52,470.03C445.711,470.153 445.826,470.366 445.826,470.593C445.826,470.727 445.786,470.859 445.71,470.97L425.78,499.54C425.602,499.785 425.27,499.866 425,499.73C407.47,490.91 396.57,498.36 387.07,512.52C371.623,535.553 359.27,560.153 350.01,586.32C346.38,596.6 344.75,607.12 337.72,616.37C309.55,653.46 282.21,699.93 253.66,741.18C248.84,748.15 251.45,756.66 260.51,757.39C266.87,757.9 270.85,752.6 274.34,747.58C294.027,719.347 313.26,690.67 332.04,661.55C332.079,661.48 332.153,661.436 332.233,661.436C332.354,661.436 332.453,661.535 332.453,661.656C332.453,661.681 332.449,661.706 332.44,661.73" style="fill:none;fill-rule:nonzero;stroke:rgb(40,51,77);stroke-width:2px;"/>
                </g>
                <g transform="matrix(1,0,0,1,-164.552,-162.393)">
                    <path d="M370.36,256.02C364.85,254.29 363.31,245.42 361.53,241.15C361.427,240.907 361.272,240.689 361.077,240.51C360.333,239.828 359.163,239.876 358.485,240.616C358.305,240.812 358.17,241.046 358.09,241.3C355.75,248.71 355.07,253.99 346.71,256.88C343.11,258.127 339.66,259.417 336.36,260.75C336.277,260.784 336.203,260.836 336.144,260.903C335.929,261.145 335.955,261.524 336.201,261.742C336.267,261.801 336.345,261.845 336.43,261.87C340.81,263.1 352.87,266.82 354.59,271.18C355.903,274.513 357.157,277.95 358.35,281.49C358.431,281.725 358.561,281.94 358.733,282.12C359.384,282.803 360.478,282.833 361.157,282.186C361.338,282.014 361.479,281.803 361.57,281.57C363.7,276.1 364.58,268.19 371.37,265.94C375.44,264.59 379.51,262.97 383.59,261.43C384.063,261.25 384.067,261.063 383.6,260.87C379.227,259.037 374.813,257.42 370.36,256.02" style="fill:none;fill-rule:nonzero;stroke:rgb(153,159,175);stroke-width:2px;"/>
                </g>
                <g transform="matrix(1,0,0,1,-164.552,-162.393)">
                    <path d="M328.92,372.28C329.286,371.783 329.788,371.395 330.37,371.16L347.36,364.4C347.397,364.385 347.433,364.367 347.467,364.345C347.737,364.168 347.812,363.795 347.632,363.52C347.611,363.488 347.587,363.458 347.56,363.43L347.02,362.89C346.881,362.758 346.718,362.656 346.54,362.59C341.847,361.01 337.16,359.403 332.48,357.77C326.95,355.83 325.23,348.65 323.83,343.33C323.263,341.163 321.867,340.35 319.64,340.89C319.324,340.965 319.072,341.202 318.98,341.51C317.73,345.63 315.39,355.18 311.21,356.98C308.363,358.2 302.993,360.1 295.1,362.68C294.487,362.88 294.083,363.167 293.89,363.54C293.824,363.662 293.79,363.799 293.79,363.938C293.79,364.305 294.03,364.631 294.38,364.74C298.81,366.12 313.56,370.51 315.23,375.53C316.53,379.417 317.873,383.19 319.26,386.85C319.561,387.658 320.337,388.196 321.199,388.196C322.084,388.196 322.876,387.628 323.16,386.79C324.78,382.13 325.89,376.44 328.92,372.28" style="fill:none;fill-rule:nonzero;stroke:rgb(153,159,175);stroke-width:2px;"/>
                </g>
                <g transform="matrix(1,0,0,1,-164.552,-162.393)">
                    <path d="M742.11,426.55C746.56,427.94 758.53,431.25 760.7,435.06C761.76,436.913 763.103,440.4 764.73,445.52C765.11,446.727 765.88,447.15 767.04,446.79C769.83,445.92 771.34,437.85 772.36,435.46C773.86,431.92 787.49,428.05 791.3,426.7C791.597,426.593 791.796,426.31 791.796,425.994C791.796,425.756 791.682,425.531 791.49,425.39C788.33,423.04 781.69,421.56 777.84,420.13C771.81,417.88 770.82,410.7 768.9,405.54C768.573,404.667 767.734,404.086 766.802,404.086C765.855,404.086 765.005,404.687 764.69,405.58C762.34,412.27 761.75,418.54 753.8,420.81C750.66,421.703 746.937,423.163 742.63,425.19C742.257,425.363 741.993,425.567 741.84,425.8C741.787,425.881 741.759,425.976 741.759,426.073C741.759,426.291 741.902,426.485 742.11,426.55" style="fill:none;fill-rule:nonzero;stroke:rgb(153,159,175);stroke-width:2px;"/>
                </g>
                <g transform="matrix(1,0,0,1,-164.552,-162.393)">
                    <path d="M262.68,467.22C263.026,467.881 263.714,468.297 264.46,468.297C265.351,468.297 266.141,467.705 266.39,466.85C267.55,462.94 269.82,452.79 273.79,451.02C279.497,448.48 285.223,446.3 290.97,444.48C291.345,444.367 291.603,444.019 291.603,443.628C291.603,443.263 291.379,442.934 291.04,442.8C287.28,441.293 283.427,439.89 279.48,438.59C269.81,435.39 268.88,429.77 266.48,420.82C266.367,420.413 266.103,420.197 265.69,420.17L262.78,419.96C262.287,419.927 261.98,420.15 261.86,420.63C259.87,428.8 258.56,434.93 251.51,437.53C246.87,439.243 242.177,440.947 237.43,442.64C237.272,442.697 237.129,442.79 237.012,442.91C236.586,443.346 236.592,444.051 237.024,444.473C237.144,444.59 237.29,444.678 237.45,444.73C242.097,446.237 246.857,447.91 251.73,449.75C259.63,452.73 259.37,460.93 262.68,467.22" style="fill:none;fill-rule:nonzero;stroke:rgb(153,159,175);stroke-width:2px;"/>
                </g>
                <g transform="matrix(1,0,0,1,-164.552,-162.393)">
                    <path d="M299.89,497.16C304.45,498.193 307.683,500.843 309.59,505.11C309.861,505.712 310.462,506.101 311.122,506.101C311.837,506.101 312.477,505.645 312.71,504.97C314.003,501.223 316.603,498.957 320.51,498.17C321.373,497.999 322,497.235 322,496.355C322,495.536 321.456,494.81 320.67,494.58C316.663,493.393 313.623,490.983 311.55,487.35C311.394,487.076 311.101,486.906 310.786,486.906C310.508,486.906 310.246,487.037 310.08,487.26L305.92,492.85C305.759,493.069 305.524,493.222 305.26,493.28C303.507,493.693 301.783,494.187 300.09,494.76C299.19,495.07 298.76,496.02 299.37,496.82C299.499,496.994 299.683,497.115 299.89,497.16" style="fill:none;fill-rule:nonzero;stroke:rgb(153,159,175);stroke-width:2px;"/>
                </g>
                <g transform="matrix(1,0,0,1,-164.552,-162.393)">
                    <path d="M728.07,522.98C733.49,525.2 738.62,526.89 740.78,532.94C741.58,535.167 742.457,537.283 743.41,539.29C743.607,539.703 744.026,539.967 744.484,539.967C744.717,539.967 744.945,539.899 745.14,539.77C745.293,539.677 745.45,539.39 745.61,538.91C746.79,535.363 748.083,532.137 749.49,529.23C749.989,528.201 750.821,527.372 751.85,526.88L759.39,523.31C759.703,523.157 759.887,522.907 759.94,522.56C760.153,521.14 759.667,520.267 758.48,519.94C749.63,517.52 748.52,512.39 745.48,504.76C745.418,504.604 745.328,504.462 745.213,504.34C744.715,503.807 743.869,503.776 743.341,504.27C743.219,504.384 743.121,504.519 743.05,504.67C741.33,508.26 740.16,514.1 736.95,516.45C735.61,517.437 732.897,518.717 728.81,520.29C728.06,520.58 727.43,521.44 727.5,522.19C727.53,522.54 727.75,522.844 728.07,522.98" style="fill:none;fill-rule:nonzero;stroke:rgb(153,159,175);stroke-width:2px;"/>
                </g>
                <g transform="matrix(1,0,0,1,-164.552,-162.393)">
                    <path d="M256.19,576.81C259.54,578.29 260.94,579.17 262.24,582.85C263.433,586.257 264.64,589.69 265.86,593.15C266.132,593.919 266.864,594.436 267.679,594.436C268.475,594.436 269.194,593.943 269.48,593.2L274.72,579.55C274.849,579.208 275.1,578.918 275.43,578.73C281.47,575.31 288.38,573.26 294.94,571.05C295.107,570.997 295.253,570.903 295.38,570.77C295.533,570.61 295.667,570.493 295.78,570.42C295.937,570.321 296.033,570.148 296.033,569.963C296.033,569.741 295.896,569.541 295.69,569.46C290.53,567.38 285.32,565.41 280.06,563.55C274.33,561.52 272.48,554.71 270.6,548.72C270.04,546.947 268.957,546.09 267.35,546.15C266.493,546.185 265.746,546.77 265.5,547.6C264.08,552.42 262.01,561.59 256.72,563.48C251.667,565.287 246.247,567.213 240.46,569.26C240.087,569.39 239.835,569.743 239.835,570.139C239.835,570.549 240.107,570.913 240.5,571.03C245.707,572.577 250.937,574.503 256.19,576.81" style="fill:none;fill-rule:nonzero;stroke:rgb(153,159,175);stroke-width:2px;"/>
                </g>
                <g transform="matrix(1,0,0,1,-164.552,-162.393)">
                    <path d="M602.13,677.05C607.377,678.703 612.497,680.41 617.49,682.17C624.81,684.75 626.04,692.5 628.26,698.95C628.78,700.45 629.7,700.987 631.02,700.56C631.789,700.311 632.388,699.697 632.62,698.92C633.733,695.253 635.007,691.48 636.44,687.6C638.8,681.25 653.72,678.68 657.42,676.24C657.467,676.209 657.508,676.172 657.543,676.128C657.728,675.897 657.687,675.551 657.452,675.363C657.409,675.328 657.361,675.3 657.31,675.28C652.657,673.48 647.993,671.777 643.32,670.17C636.07,667.68 634.55,659.34 632.67,653.08C632.548,652.673 632.325,652.303 632.022,652.004C631.033,651.03 629.421,651.038 628.451,652.022C628.152,652.325 627.935,652.699 627.82,653.11C626.52,657.69 624.42,666.52 619.72,668.74C615.933,670.52 610.457,672.643 603.29,675.11C602.597,675.343 602.117,675.59 601.85,675.85C601.807,675.891 601.77,675.938 601.739,675.988C601.531,676.324 601.632,676.769 601.963,676.975C602.015,677.007 602.071,677.032 602.13,677.05" style="fill:none;fill-rule:nonzero;stroke:rgb(153,159,175);stroke-width:2px;"/>
                </g>
                <g transform="matrix(1,0,0,1,-164.552,-162.393)">
                    <path d="M523.13,719.29C529.65,721.55 542.64,724.73 545.22,730.03C545.973,731.597 547.443,735.32 549.63,741.2C550.19,742.727 551.18,743.3 552.6,742.92C553.293,742.735 553.838,742.198 554.03,741.51C554.99,738.09 557.05,729.32 559.78,727.26C564.56,723.67 573.35,721.35 579.17,719.52C579.231,719.501 579.29,719.474 579.346,719.442C579.737,719.208 579.864,718.691 579.628,718.295C579.595,718.239 579.555,718.187 579.51,718.14C578.783,717.393 577.783,716.84 576.51,716.48C571.52,715.06 561.64,712.72 558.79,708.71C556.39,705.34 555.88,700.54 553.9,695.75C553.23,694.14 551.77,693.66 550.22,694.29C549.914,694.41 549.674,694.654 549.56,694.96C546.53,703.31 546.79,709.4 537.86,712.68C533.193,714.393 528.53,716.107 523.87,717.82C523.617,717.92 523.427,718.06 523.3,718.24C523.133,718.493 523.023,718.75 522.97,719.01C522.948,719.129 523.016,719.248 523.13,719.29" style="fill:none;fill-rule:nonzero;stroke:rgb(153,159,175);stroke-width:2px;"/>
                </g>
                <g transform="matrix(1,0,0,1,-164.552,-162.393)">
                    <path d="M351.84,830.47C357.41,832.17 362.33,828.22 366.42,824.42C380.333,811.493 394.287,798.617 408.28,785.79C420.68,774.42 404.84,758.96 394.47,768.46C387.277,775.06 371.983,789.927 348.59,813.06C342.46,819.12 343.62,827.96 351.84,830.47" style="fill:none;fill-rule:nonzero;stroke:rgb(40,51,77);stroke-width:2px;"/>
                </g>
                <g transform="matrix(1,0,0,1,-164.552,-162.393)">
                    <path d="M667.96,223.7L642.17,227.12C641.783,227.173 641.563,227.397 641.51,227.79C638.997,246.943 629.72,261.26 613.68,270.74C605.16,275.78 594.34,276.85 586.43,281.66C581.463,284.687 577.077,288.717 573.27,293.75C573.264,293.758 573.258,293.766 573.252,293.774C572.954,294.195 573.052,294.784 573.468,295.079C573.479,295.086 573.489,295.093 573.5,295.1L585.61,302.95" style="fill:none;fill-rule:nonzero;stroke:rgb(114,122,141);stroke-width:2px;"/>
                </g>
                <g transform="matrix(1,0,0,1,-164.552,-162.393)">
                    <path d="M585.61,302.95C613.29,321.757 640.98,340.377 668.68,358.81C673.52,362.03 684.74,368.55 676.79,375.89C672.73,379.64 669.5,376.88 665.61,374.3C629.78,350.59 593.97,326.83 558.19,303.04C556.83,302.133 556.413,300.693 556.94,298.72C559.693,288.28 564.59,279.103 571.63,271.19" style="fill:none;fill-rule:nonzero;stroke:rgb(140,144,156);stroke-width:2px;"/>
                </g>
                <g transform="matrix(1,0,0,1,-164.552,-162.393)">
                    <path d="M571.63,271.19C576.257,266.437 581.533,262.543 587.46,259.51" style="fill:none;fill-rule:nonzero;stroke:rgb(114,122,141);stroke-width:2px;"/>
                </g>
                <g transform="matrix(1,0,0,1,-164.552,-162.393)">
                    <path d="M587.46,259.51C603.07,254.56 615.94,248.39 620.28,231.16C620.373,230.78 620.23,230.62 619.85,230.68L608.62,232.51" style="fill:none;fill-rule:nonzero;stroke:rgb(140,144,156);stroke-width:2px;"/>
                </g>
                <g transform="matrix(1,0,0,1,-164.552,-162.393)">
                    <path d="M608.62,232.51L592.89,234.42" style="fill:none;fill-rule:nonzero;stroke:rgb(114,122,141);stroke-width:2px;"/>
                </g>
                <g transform="matrix(1,0,0,1,-164.552,-162.393)">
                    <path d="M592.89,234.42C582.53,235.893 572.293,237.387 562.18,238.9C560.7,239.12 559.3,238.99 558.27,240.29C538.863,264.783 519.343,289.193 499.71,313.52C498.09,315.533 496.76,317.72 495.72,320.08C478.16,360.15 460.12,399.76 440.99,439.11C440.806,439.493 440.934,439.959 441.29,440.2L587.38,538.15C587.653,538.33 587.897,538.283 588.11,538.01C633.62,481.48 679.3,425.12 723.62,367.71C724.11,367.079 724.352,366.289 724.3,365.49C724.173,363.31 723.973,361.067 723.7,358.76C718.187,312.033 712.327,265.413 706.12,218.9C706.053,218.42 705.777,218.213 705.29,218.28L667.96,223.7" style="fill:none;fill-rule:nonzero;stroke:rgb(140,144,156);stroke-width:2px;"/>
                </g>
                <g transform="matrix(1,0,0,1,-164.552,-162.393)">
                    <path d="M592.89,234.42C591.61,236.8 590.68,239.41 589.29,241.53C583.69,250.123 578.15,258.76 572.67,267.44C571.78,268.85 570.62,269.11 571.63,271.19" style="fill:none;fill-rule:nonzero;stroke:rgb(227,230,239);stroke-width:2px;"/>
                </g>
                <g transform="matrix(1,0,0,1,-164.552,-162.393)">
                    <path d="M585.61,302.95C586.55,302.87 587.593,302.943 588.74,303.17C589.873,303.397 590.88,303.41 591.76,303.21C630.01,294.6 647.92,261.97 665.38,229.65C666.573,227.443 667.433,225.46 667.96,223.7" style="fill:none;fill-rule:nonzero;stroke:rgb(227,230,239);stroke-width:2px;"/>
                </g>
                <g transform="matrix(1,0,0,1,-164.552,-162.393)">
                    <path d="M587.46,259.51C594.967,250.91 602.02,241.91 608.62,232.51" style="fill:none;fill-rule:nonzero;stroke:rgb(227,230,239);stroke-width:2px;"/>
                </g>
                <g transform="matrix(1,0,0,1,-164.552,-162.393)">
                    <path d="M417.03,369.49C409.46,378.98 398.74,386.15 389.55,394.04C374.74,406.76 362.12,421.31 358.66,441.33C358.547,442.01 358.813,442.237 359.46,442.01C383.26,433.903 406.76,424.99 429.96,415.27C430.088,415.219 430.192,415.115 430.25,414.98L460.33,347.06" style="fill:none;fill-rule:nonzero;stroke:rgb(140,144,156);stroke-width:2px;"/>
                </g>
                <g transform="matrix(1,0,0,1,-164.552,-162.393)">
                    <path d="M460.33,347.06L467.04,333.03C467.213,332.663 467.117,332.57 466.75,332.75C455.07,338.47 437.9,343.52 429.35,353.5C424.977,358.613 420.87,363.943 417.03,369.49" style="fill:none;fill-rule:nonzero;stroke:rgb(114,122,141);stroke-width:2px;"/>
                </g>
                <g transform="matrix(1,0,0,1,-164.552,-162.393)">
                    <path d="M460.33,347.06L455.28,353.19C455.067,353.45 454.81,353.503 454.51,353.35C454.223,353.21 453.97,353.177 453.75,353.25C441.27,357.38 429.93,363.46 418.66,370.19C418.4,370.343 418.197,370.287 418.05,370.02C417.803,369.58 417.463,369.403 417.03,369.49" style="fill:none;fill-rule:nonzero;stroke:rgb(227,230,239);stroke-width:2px;"/>
                </g>
                <g transform="matrix(1,0,0,1,-164.552,-162.393)">
                    <path d="M646.44,499.09C636.973,510.837 627.493,522.707 618,534.7C614.6,538.99 613.08,540.22 613.74,545.24C616.34,564.787 618.69,584.193 620.79,603.46C620.857,604.08 621.17,604.263 621.73,604.01C637.417,596.99 647.083,585.39 650.73,569.21C651.697,564.903 653.56,554.5 656.32,538" style="fill:none;fill-rule:nonzero;stroke:rgb(140,144,156);stroke-width:2px;"/>
                </g>
                <g transform="matrix(1,0,0,1,-164.552,-162.393)">
                    <path d="M656.32,538C661.46,514.84 665.3,490.38 671.74,468.99C671.753,468.965 671.76,468.938 671.76,468.91C671.76,468.817 671.683,468.74 671.59,468.74C671.527,468.74 671.47,468.775 671.44,468.83L646.44,499.09" style="fill:none;fill-rule:nonzero;stroke:rgb(114,122,141);stroke-width:2px;"/>
                </g>
                <g transform="matrix(1,0,0,1,-164.552,-162.393)">
                    <path d="M656.32,538C653.29,524.57 652.22,512.56 646.44,499.09" style="fill:none;fill-rule:nonzero;stroke:rgb(227,230,239);stroke-width:2px;"/>
                </g>
                <g transform="matrix(1,0,0,1,-164.552,-162.393)">
                    <path d="M441.58,513.25C440.807,513.89 440.697,514.473 441.25,515C444.61,518.247 448.963,521.73 454.31,525.45C476.263,540.73 498.39,555.8 520.69,570.66C520.943,570.833 521.157,570.793 521.33,570.54L544.44,536.66C544.692,536.281 544.588,535.763 544.21,535.51L465.79,482.78" style="fill:none;fill-rule:nonzero;stroke:rgb(140,144,156);stroke-width:2px;"/>
                </g>
                <g transform="matrix(1,0,0,1,-164.552,-162.393)">
                    <path d="M465.79,482.78L464.69,481.89C464.377,481.637 464.1,481.673 463.86,482L441.58,513.25" style="fill:none;fill-rule:nonzero;stroke:rgb(114,122,141);stroke-width:2px;"/>
                </g>
                <g transform="matrix(1,0,0,1,-164.552,-162.393)">
                    <path d="M465.79,482.78C459.457,493.933 452.123,504.327 443.79,513.96C443.517,514.273 443.26,514.26 443.02,513.92C442.427,513.087 441.947,512.863 441.58,513.25" style="fill:none;fill-rule:nonzero;stroke:rgb(227,230,239);stroke-width:2px;"/>
                </g>
                <g transform="matrix(1,0,0,1,-164.552,-162.393)">
                    <path d="M409.24,702.4L413.43,707.45C413.59,707.637 413.767,707.657 413.96,707.51C455.53,675.41 492.76,643.98 524.95,603.7C525.43,603.1 526.037,602.057 526.77,600.57C526.917,600.27 526.823,600.107 526.49,600.08C521.377,599.66 516.393,598.593 511.54,596.88C510.803,596.613 509.971,596.872 509.51,597.51C504.51,604.35 480.56,636.22 472.82,635.36C465.12,634.5 465.58,626.68 469.54,621.95C478.42,611.363 487.057,600.583 495.45,589.61C495.65,589.35 495.617,589.127 495.35,588.94L475.74,575.19C475.44,574.977 475.18,575.02 474.96,575.32C459.667,596.08 444.08,616.623 428.2,636.95C426.67,638.91 423.46,641.98 420.82,642.55C414.41,643.92 411.66,637.15 413.65,632.02C413.757,631.747 414.847,629.897 416.92,626.47C429.913,604.983 443.347,583.777 457.22,562.85C457.371,562.624 457.313,562.314 457.09,562.15L436.64,547.56C436.4,547.393 436.207,547.433 436.06,547.68C429.32,559.36 422.483,570.977 415.55,582.53C413.35,586.197 411.567,588.41 410.2,589.17C403.56,592.87 397.78,586.11 400.78,580.04C405.753,569.967 413.217,556.093 423.17,538.42C423.343,538.113 423.313,537.827 423.08,537.56C418.04,531.78 414.647,525.15 412.9,517.67C412.807,517.257 412.62,517.213 412.34,517.54C387.66,546.51 374.29,578.99 366.36,616.44C361.06,641.43 356.5,666.87 348.26,690.8C338.12,720.24 324.69,751.69 306.84,777.71C306.811,777.746 306.795,777.79 306.795,777.836C306.795,777.946 306.885,778.036 306.995,778.036C307.036,778.036 307.076,778.024 307.11,778C342.09,756.89 375.14,730.71 405.78,703.78C406.64,703.027 407.47,702.487 408.27,702.16C408.65,702 408.973,702.08 409.24,702.4" style="fill:none;fill-rule:nonzero;stroke:rgb(140,144,156);stroke-width:2px;"/>
                </g>
                <g transform="matrix(1,0,0,1,-164.552,-162.393)">
                    <path d="M695.03,349.931C697.208,346.689 696.333,342.229 693.091,340.05L628.234,296.468C624.992,294.289 620.532,295.165 618.353,298.406L618.23,298.589C616.052,301.831 616.927,306.291 620.169,308.47L685.026,352.052C688.268,354.231 692.728,353.355 694.907,350.114L695.03,349.931" style="fill:none;fill-rule:nonzero;stroke:rgb(140,144,156);stroke-width:2px;"/>
                </g>
                <g transform="matrix(1,0,0,1,-164.552,-162.393)">
                    <path d="M660.469,397.438C661.267,396.25 661.693,394.852 661.693,393.422C661.693,391.026 660.498,388.782 658.509,387.446L552.052,315.909C550.865,315.112 549.466,314.685 548.036,314.685C545.64,314.685 543.396,315.881 542.06,317.87L541.971,318.002C541.173,319.19 540.747,320.588 540.747,322.018C540.747,324.414 541.942,326.658 543.931,327.994L650.388,399.531C651.575,400.328 652.974,400.755 654.404,400.755C656.8,400.755 659.044,399.559 660.38,397.57L660.469,397.438" style="fill:none;fill-rule:nonzero;stroke:rgb(140,144,156);stroke-width:2px;"/>
                </g>
                <g transform="matrix(1,0,0,1,-164.552,-162.393)">
                    <path d="M643.284,421.18C644.062,420.018 644.478,418.651 644.478,417.253C644.478,414.899 643.301,412.695 641.345,411.386L534.946,340.158C533.784,339.38 532.417,338.965 531.018,338.965C528.665,338.965 526.461,340.142 525.152,342.097L524.896,342.48C524.118,343.642 523.702,345.009 523.702,346.407C523.702,348.761 524.879,350.965 526.835,352.274L633.234,423.502C634.396,424.28 635.763,424.695 637.162,424.695C639.515,424.695 641.719,423.518 643.028,421.563L643.284,421.18" style="fill:none;fill-rule:nonzero;stroke:rgb(140,144,156);stroke-width:2px;"/>
                </g>
                <g transform="matrix(1,0,0,1,-164.552,-162.393)">
                    <path d="M627.511,445.996C629.734,442.652 628.81,438.071 625.465,435.848L518.385,364.704C515.04,362.482 510.459,363.406 508.237,366.75L508.149,366.884C505.926,370.228 506.85,374.809 510.195,377.032L617.275,448.176C620.62,450.398 625.201,449.474 627.423,446.13L627.511,445.996" style="fill:none;fill-rule:nonzero;stroke:rgb(140,144,156);stroke-width:2px;"/>
                </g>
                <g transform="matrix(1,0,0,1,-164.552,-162.393)">
                    <path d="M603.58,478.921C604.385,477.714 604.815,476.294 604.815,474.843C604.815,472.388 603.585,470.09 601.543,468.728L501.742,402.169C500.534,401.364 499.115,400.934 497.664,400.934C495.209,400.934 492.911,402.164 491.549,404.206L491.46,404.339C490.655,405.546 490.225,406.966 490.225,408.417C490.225,410.872 491.455,413.17 493.497,414.532L593.298,481.091C594.506,481.896 595.925,482.326 597.376,482.326C599.831,482.326 602.129,481.096 603.491,479.054L603.58,478.921" style="fill:none;fill-rule:nonzero;stroke:rgb(140,144,156);stroke-width:2px;"/>
                </g>
            </g>
            <g transform="matrix(1.46414,0,0,1.46414,-240.927,-237.766)">
                <path d="M332.44,661.73C332.449,661.706 332.453,661.681 332.453,661.656C332.453,661.535 332.354,661.436 332.233,661.436C332.153,661.436 332.079,661.48 332.04,661.55C313.26,690.67 294.027,719.347 274.34,747.58C270.85,752.6 266.87,757.9 260.51,757.39C251.45,756.66 248.84,748.15 253.66,741.18C282.21,699.93 309.55,653.46 337.72,616.37C344.75,607.12 346.38,596.6 350.01,586.32C359.27,560.153 371.623,535.553 387.07,512.52C396.57,498.36 407.47,490.91 425,499.73C425.27,499.866 425.602,499.785 425.78,499.54L445.71,470.97C445.786,470.859 445.826,470.727 445.826,470.593C445.826,470.366 445.711,470.153 445.52,470.03L414.99,450.52C414.469,450.183 413.825,450.085 413.22,450.25C387.83,457.26 362.39,464.23 336.23,468.05C336.206,468.054 336.182,468.056 336.158,468.058C335.617,468.101 335.136,467.686 335.093,467.139C335.091,467.116 335.09,467.093 335.09,467.07C335.01,447.04 336.36,428.07 347.83,410.32C362.75,387.23 386.99,368.4 407.51,349.6C415.94,341.89 424.29,335.26 434.92,330.2C447.547,324.18 460.15,318.12 472.73,312.02C473.557,311.62 474.893,310.287 476.74,308.02C501.233,278.047 525.527,247.91 549.62,217.61C549.807,217.383 550.043,217.25 550.33,217.21L725.03,193.31C725.537,193.243 725.823,193.463 725.89,193.97C732.097,240.403 737.967,286.913 743.5,333.5C745.693,351.967 747.12,364.68 747.78,371.64C747.813,372.007 747.713,372.337 747.48,372.63C731.413,393.097 715.21,413.42 698.87,433.6C696.73,436.25 695.61,439.35 695.05,443.02C692.69,458.633 689.973,474.187 686.9,489.68C682.65,511.09 680.16,532.93 676.77,554.5C672.11,584.22 662.97,610.03 633.38,622.4C624.78,625.99 613.21,628.33 603.2,630.29C602.76,630.37 602.507,630.19 602.44,629.75L593.39,568C593.251,567.066 592.715,566.234 591.92,565.72L563.77,547.56C563.497,547.387 563.263,547.427 563.07,547.68C556.177,556.88 549.433,566.083 542.84,575.29C542.113,576.303 541.577,577.377 541.23,578.51C541.133,578.834 541.317,579.18 541.64,579.28C551.31,582.1 554.01,592.58 551.9,601.43C550.08,609.09 545.12,614.96 540.31,620.83C518.737,647.163 494.883,671.197 468.75,692.93C421.53,732.19 372.51,768.08 319.96,799.96C315.967,802.38 311.853,804.547 307.62,806.46C307.264,806.62 306.849,806.574 306.54,806.34L278.16,784.27C277.893,784.063 277.853,783.817 278.04,783.53C297.82,752.79 314.98,718.88 325.76,683.88C328.047,676.46 330.273,669.077 332.44,661.73ZM667.96,223.7L642.17,227.12C641.783,227.173 641.563,227.397 641.51,227.79C638.997,246.943 629.72,261.26 613.68,270.74C605.16,275.78 594.34,276.85 586.43,281.66C581.463,284.687 577.077,288.717 573.27,293.75C573.264,293.758 573.258,293.766 573.252,293.774C572.954,294.195 573.052,294.784 573.468,295.079C573.479,295.086 573.489,295.093 573.5,295.1L585.61,302.95C613.29,321.757 640.98,340.377 668.68,358.81C673.52,362.03 684.74,368.55 676.79,375.89C672.73,379.64 669.5,376.88 665.61,374.3C629.78,350.59 593.97,326.83 558.19,303.04C556.83,302.133 556.413,300.693 556.94,298.72C559.693,288.28 564.59,279.103 571.63,271.19C576.257,266.437 581.533,262.543 587.46,259.51C603.07,254.56 615.94,248.39 620.28,231.16C620.373,230.78 620.23,230.62 619.85,230.68L608.62,232.51L592.89,234.42C582.53,235.893 572.293,237.387 562.18,238.9C560.7,239.12 559.3,238.99 558.27,240.29C538.863,264.783 519.343,289.193 499.71,313.52C498.09,315.533 496.76,317.72 495.72,320.08C478.16,360.15 460.12,399.76 440.99,439.11C440.806,439.493 440.934,439.959 441.29,440.2L587.38,538.15C587.653,538.33 587.897,538.283 588.11,538.01C633.62,481.48 679.3,425.12 723.62,367.71C724.11,367.079 724.352,366.289 724.3,365.49C724.173,363.31 723.973,361.067 723.7,358.76C718.187,312.033 712.327,265.413 706.12,218.9C706.053,218.42 705.777,218.213 705.29,218.28L667.96,223.7ZM417.03,369.49C409.46,378.98 398.74,386.15 389.55,394.04C374.74,406.76 362.12,421.31 358.66,441.33C358.547,442.01 358.813,442.237 359.46,442.01C383.26,433.903 406.76,424.99 429.96,415.27C430.088,415.219 430.192,415.115 430.25,414.98L460.33,347.06L467.04,333.03C467.213,332.663 467.117,332.57 466.75,332.75C455.07,338.47 437.9,343.52 429.35,353.5C424.977,358.613 420.87,363.943 417.03,369.49ZM646.44,499.09C636.973,510.837 627.493,522.707 618,534.7C614.6,538.99 613.08,540.22 613.74,545.24C616.34,564.787 618.69,584.193 620.79,603.46C620.857,604.08 621.17,604.263 621.73,604.01C637.417,596.99 647.083,585.39 650.73,569.21C651.697,564.903 653.56,554.5 656.32,538C661.46,514.84 665.3,490.38 671.74,468.99C671.753,468.965 671.76,468.938 671.76,468.91C671.76,468.817 671.683,468.74 671.59,468.74C671.527,468.74 671.47,468.775 671.44,468.83L646.44,499.09ZM441.58,513.25C440.807,513.89 440.697,514.473 441.25,515C444.61,518.247 448.963,521.73 454.31,525.45C476.263,540.73 498.39,555.8 520.69,570.66C520.943,570.833 521.157,570.793 521.33,570.54L544.44,536.66C544.692,536.281 544.588,535.763 544.21,535.51L465.79,482.78L464.69,481.89C464.377,481.637 464.1,481.673 463.86,482L441.58,513.25ZM409.24,702.4L413.43,707.45C413.59,707.637 413.767,707.657 413.96,707.51C455.53,675.41 492.76,643.98 524.95,603.7C525.43,603.1 526.037,602.057 526.77,600.57C526.917,600.27 526.823,600.107 526.49,600.08C521.377,599.66 516.393,598.593 511.54,596.88C510.803,596.613 509.971,596.872 509.51,597.51C504.51,604.35 480.56,636.22 472.82,635.36C465.12,634.5 465.58,626.68 469.54,621.95C478.42,611.363 487.057,600.583 495.45,589.61C495.65,589.35 495.617,589.127 495.35,588.94L475.74,575.19C475.44,574.977 475.18,575.02 474.96,575.32C459.667,596.08 444.08,616.623 428.2,636.95C426.67,638.91 423.46,641.98 420.82,642.55C414.41,643.92 411.66,637.15 413.65,632.02C413.757,631.747 414.847,629.897 416.92,626.47C429.913,604.983 443.347,583.777 457.22,562.85C457.371,562.624 457.313,562.314 457.09,562.15L436.64,547.56C436.4,547.393 436.207,547.433 436.06,547.68C429.32,559.36 422.483,570.977 415.55,582.53C413.35,586.197 411.567,588.41 410.2,589.17C403.56,592.87 397.78,586.11 400.78,580.04C405.753,569.967 413.217,556.093 423.17,538.42C423.343,538.113 423.313,537.827 423.08,537.56C418.04,531.78 414.647,525.15 412.9,517.67C412.807,517.257 412.62,517.213 412.34,517.54C387.66,546.51 374.29,578.99 366.36,616.44C361.06,641.43 356.5,666.87 348.26,690.8C338.12,720.24 324.69,751.69 306.84,777.71C306.811,777.746 306.795,777.79 306.795,777.836C306.795,777.946 306.885,778.036 306.995,778.036C307.036,778.036 307.076,778.024 307.11,778C342.09,756.89 375.14,730.71 405.78,703.78C406.64,703.027 407.47,702.487 408.27,702.16C408.65,702 408.973,702.08 409.24,702.4Z" style="fill:rgb(57,20,90);fill-rule:nonzero;"/>
            </g>
            <g transform="matrix(1.46414,0,0,1.46414,-240.927,-237.766)">
                <path d="M592.89,234.42C591.61,236.8 590.68,239.41 589.29,241.53C583.69,250.123 578.15,258.76 572.67,267.44C571.78,268.85 570.62,269.11 571.63,271.19C564.59,279.103 559.693,288.28 556.94,298.72C556.413,300.693 556.83,302.133 558.19,303.04C593.97,326.83 629.78,350.59 665.61,374.3C669.5,376.88 672.73,379.64 676.79,375.89C684.74,368.55 673.52,362.03 668.68,358.81C640.98,340.377 613.29,321.757 585.61,302.95C586.55,302.87 587.593,302.943 588.74,303.17C589.873,303.397 590.88,303.41 591.76,303.21C630.01,294.6 647.92,261.97 665.38,229.65C666.573,227.443 667.433,225.46 667.96,223.7L705.29,218.28C705.777,218.213 706.053,218.42 706.12,218.9C712.327,265.413 718.187,312.033 723.7,358.76C723.973,361.067 724.173,363.31 724.3,365.49C724.352,366.289 724.11,367.079 723.62,367.71C679.3,425.12 633.62,481.48 588.11,538.01C587.897,538.283 587.653,538.33 587.38,538.15L441.29,440.2C440.934,439.959 440.806,439.493 440.99,439.11C460.12,399.76 478.16,360.15 495.72,320.08C496.76,317.72 498.09,315.533 499.71,313.52C519.343,289.193 538.863,264.783 558.27,240.29C559.3,238.99 560.7,239.12 562.18,238.9C572.293,237.387 582.53,235.893 592.89,234.42ZM695.03,349.931C697.208,346.689 696.333,342.229 693.091,340.05L628.234,296.468C624.992,294.289 620.532,295.165 618.353,298.406L618.23,298.589C616.052,301.831 616.927,306.291 620.169,308.47L685.026,352.052C688.268,354.231 692.728,353.355 694.907,350.114L695.03,349.931ZM660.469,397.438C661.267,396.25 661.693,394.852 661.693,393.422C661.693,391.026 660.498,388.782 658.509,387.446L552.052,315.909C550.865,315.112 549.466,314.685 548.036,314.685C545.64,314.685 543.396,315.881 542.06,317.87L541.971,318.002C541.173,319.19 540.747,320.588 540.747,322.018C540.747,324.414 541.942,326.658 543.931,327.994L650.388,399.531C651.575,400.328 652.974,400.755 654.404,400.755C656.8,400.755 659.044,399.559 660.38,397.57L660.469,397.438ZM643.284,421.18C644.062,420.018 644.478,418.651 644.478,417.253C644.478,414.899 643.301,412.695 641.345,411.386L534.946,340.158C533.784,339.38 532.417,338.965 531.018,338.965C528.665,338.965 526.461,340.142 525.152,342.097L524.896,342.48C524.118,343.642 523.702,345.009 523.702,346.407C523.702,348.761 524.879,350.965 526.835,352.274L633.234,423.502C634.396,424.28 635.763,424.695 637.162,424.695C639.515,424.695 641.719,423.518 643.028,421.563L643.284,421.18ZM627.511,445.996C629.734,442.652 628.81,438.071 625.465,435.848L518.385,364.704C515.04,362.482 510.459,363.406 508.237,366.75L508.149,366.884C505.926,370.228 506.85,374.809 510.195,377.032L617.275,448.176C620.62,450.398 625.201,449.474 627.423,446.13L627.511,445.996ZM603.58,478.921C604.385,477.714 604.815,476.294 604.815,474.843C604.815,472.388 603.585,470.09 601.543,468.728L501.742,402.169C500.534,401.364 499.115,400.934 497.664,400.934C495.209,400.934 492.911,402.164 491.549,404.206L491.46,404.339C490.655,405.546 490.225,406.966 490.225,408.417C490.225,410.872 491.455,413.17 493.497,414.532L593.298,481.091C594.506,481.896 595.925,482.326 597.376,482.326C599.831,482.326 602.129,481.096 603.491,479.054L603.58,478.921Z" style="fill:rgb(252,252,254);fill-rule:nonzero;"/>
            </g>
            <g transform="matrix(1.46414,0,0,1.46414,-240.927,-237.766)">
                <path d="M667.96,223.7C667.433,225.46 666.573,227.443 665.38,229.65C647.92,261.97 630.01,294.6 591.76,303.21C590.88,303.41 589.873,303.397 588.74,303.17C587.593,302.943 586.55,302.87 585.61,302.95L573.5,295.1C573.489,295.093 573.479,295.086 573.468,295.079C573.052,294.784 572.954,294.195 573.252,293.774C573.258,293.766 573.264,293.758 573.27,293.75C577.077,288.717 581.463,284.687 586.43,281.66C594.34,276.85 605.16,275.78 613.68,270.74C629.72,261.26 638.997,246.943 641.51,227.79C641.563,227.397 641.783,227.173 642.17,227.12L667.96,223.7Z" style="fill:rgb(201,208,224);fill-rule:nonzero;"/>
            </g>
            <g transform="matrix(1.46414,0,0,1.46414,-240.927,-237.766)">
                <path d="M587.46,259.51C594.967,250.91 602.02,241.91 608.62,232.51L619.85,230.68C620.23,230.62 620.373,230.78 620.28,231.16C615.94,248.39 603.07,254.56 587.46,259.51Z" style="fill:rgb(252,252,254);fill-rule:nonzero;"/>
            </g>
            <g transform="matrix(1.46414,0,0,1.46414,-240.927,-237.766)">
                <path d="M608.62,232.51C602.02,241.91 594.967,250.91 587.46,259.51C581.533,262.543 576.257,266.437 571.63,271.19C570.62,269.11 571.78,268.85 572.67,267.44C578.15,258.76 583.69,250.123 589.29,241.53C590.68,239.41 591.61,236.8 592.89,234.42L608.62,232.51Z" style="fill:rgb(201,208,224);fill-rule:nonzero;"/>
            </g>
            <g transform="matrix(1.46414,0,0,1.46414,-240.927,-237.766)">
                <path d="M361.53,241.15C363.31,245.42 364.85,254.29 370.36,256.02C374.813,257.42 379.227,259.037 383.6,260.87C384.067,261.063 384.063,261.25 383.59,261.43C379.51,262.97 375.44,264.59 371.37,265.94C364.58,268.19 363.7,276.1 361.57,281.57C361.479,281.803 361.338,282.014 361.157,282.186C360.478,282.833 359.384,282.803 358.733,282.12C358.561,281.94 358.431,281.725 358.35,281.49C357.157,277.95 355.903,274.513 354.59,271.18C352.87,266.82 340.81,263.1 336.43,261.87C336.345,261.845 336.267,261.801 336.201,261.742C335.955,261.524 335.929,261.145 336.144,260.903C336.203,260.836 336.277,260.784 336.36,260.75C339.66,259.417 343.11,258.127 346.71,256.88C355.07,253.99 355.75,248.71 358.09,241.3C358.17,241.046 358.305,240.812 358.485,240.616C359.163,239.876 360.333,239.828 361.077,240.51C361.272,240.689 361.427,240.907 361.53,241.15Z" style="fill:rgb(131,131,193);fill-rule:nonzero;"/>
            </g>
            <g transform="matrix(1.21525,0.816616,-0.816616,1.21525,720.47,236.995)">
                <path d="M46.19,-0.11C46.19,-4.04 43,-7.23 39.07,-7.23L-39.07,-7.23C-43,-7.23 -46.19,-4.04 -46.19,-0.11L-46.19,0.11C-46.19,4.04 -43,7.23 -39.07,7.23L39.07,7.23C43,7.23 46.19,4.04 46.19,0.11L46.19,-0.11Z" style="fill:rgb(57,20,90);"/>
            </g>
            <g transform="matrix(1.21525,0.816616,-0.816616,1.21525,639.342,285.985)">
                <path d="M71.33,-0.08C71.33,-4.054 68.104,-7.28 64.13,-7.28L-64.13,-7.28C-68.104,-7.28 -71.33,-4.054 -71.33,-0.08L-71.33,0.08C-71.33,4.054 -68.104,7.28 -64.13,7.28L64.13,7.28C68.104,7.28 71.33,4.054 71.33,0.08L71.33,-0.08Z" style="fill:rgb(57,20,90);"/>
            </g>
            <g transform="matrix(1.46414,0,0,1.46414,-240.927,-237.766)">
                <path d="M460.33,347.06L455.28,353.19C455.067,353.45 454.81,353.503 454.51,353.35C454.223,353.21 453.97,353.177 453.75,353.25C441.27,357.38 429.93,363.46 418.66,370.19C418.4,370.343 418.197,370.287 418.05,370.02C417.803,369.58 417.463,369.403 417.03,369.49C420.87,363.943 424.977,358.613 429.35,353.5C437.9,343.52 455.07,338.47 466.75,332.75C467.117,332.57 467.213,332.663 467.04,333.03L460.33,347.06Z" style="fill:rgb(201,208,224);fill-rule:nonzero;"/>
            </g>
            <g transform="matrix(1.21668,0.814493,-0.814493,1.21668,614.261,321.285)">
                <path d="M71.08,-0.23C71.08,-4.127 67.917,-7.29 64.02,-7.29L-64.02,-7.29C-67.917,-7.29 -71.08,-4.127 -71.08,-0.23L-71.08,0.23C-71.08,4.127 -67.917,7.29 -64.02,7.29L64.02,7.29C67.917,7.29 71.08,4.127 71.08,0.23L71.08,-0.23Z" style="fill:rgb(57,20,90);"/>
            </g>
            <g transform="matrix(1.46414,0,0,1.46414,-240.927,-237.766)">
                <path d="M328.92,372.28C325.89,376.44 324.78,382.13 323.16,386.79C322.876,387.628 322.084,388.196 321.199,388.196C320.337,388.196 319.561,387.658 319.26,386.85C317.873,383.19 316.53,379.417 315.23,375.53C313.56,370.51 298.81,366.12 294.38,364.74C294.03,364.631 293.79,364.305 293.79,363.938C293.79,363.799 293.824,363.662 293.89,363.54C294.083,363.167 294.487,362.88 295.1,362.68C302.993,360.1 308.363,358.2 311.21,356.98C315.39,355.18 317.73,345.63 318.98,341.51C319.072,341.202 319.324,340.965 319.64,340.89C321.867,340.35 323.263,341.163 323.83,343.33C325.23,348.65 326.95,355.83 332.48,357.77C337.16,359.403 341.847,361.01 346.54,362.59C346.718,362.656 346.881,362.758 347.02,362.89L347.56,363.43C347.587,363.458 347.611,363.488 347.632,363.52C347.812,363.795 347.737,364.168 347.467,364.345C347.433,364.367 347.397,364.385 347.36,364.4L330.37,371.16C329.788,371.395 329.286,371.783 328.92,372.28Z" style="fill:rgb(131,131,193);fill-rule:nonzero;"/>
            </g>
            <g transform="matrix(1.46414,0,0,1.46414,-240.927,-237.766)">
                <path d="M460.33,347.06L430.25,414.98C430.192,415.115 430.088,415.219 429.96,415.27C406.76,424.99 383.26,433.903 359.46,442.01C358.813,442.237 358.547,442.01 358.66,441.33C362.12,421.31 374.74,406.76 389.55,394.04C398.74,386.15 409.46,378.98 417.03,369.49C417.463,369.403 417.803,369.58 418.05,370.02C418.197,370.287 418.4,370.343 418.66,370.19C429.93,363.46 441.27,357.38 453.75,353.25C453.97,353.177 454.223,353.21 454.51,353.35C454.81,353.503 455.067,353.45 455.28,353.19L460.33,347.06Z" style="fill:rgb(252,252,254);fill-rule:nonzero;"/>
            </g>
            <g transform="matrix(1.21951,0.810241,-0.810241,1.21951,590.454,357.318)">
                <path d="M71.6,-0.08C71.6,-4.12 68.32,-7.4 64.28,-7.4L-64.28,-7.4C-68.32,-7.4 -71.6,-4.12 -71.6,-0.08L-71.6,0.08C-71.6,4.12 -68.32,7.4 -64.28,7.4L64.28,7.4C68.32,7.4 71.6,4.12 71.6,0.08L71.6,-0.08Z" style="fill:rgb(57,20,90);"/>
            </g>
            <g transform="matrix(1.2181,0.812369,-0.812369,1.2181,560.718,408.841)">
                <path d="M67.33,-0.08C67.33,-4.137 64.037,-7.43 59.98,-7.43L-59.98,-7.43C-64.037,-7.43 -67.33,-4.137 -67.33,-0.08L-67.33,0.08C-67.33,4.137 -64.037,7.43 -59.98,7.43L59.98,7.43C64.037,7.43 67.33,4.137 67.33,0.08L67.33,-0.08Z" style="fill:rgb(57,20,90);"/>
            </g>
            <g transform="matrix(1.46414,0,0,1.46414,-240.927,-237.766)">
                <path d="M742.11,426.55C741.902,426.485 741.759,426.291 741.759,426.073C741.759,425.976 741.787,425.881 741.84,425.8C741.993,425.567 742.257,425.363 742.63,425.19C746.937,423.163 750.66,421.703 753.8,420.81C761.75,418.54 762.34,412.27 764.69,405.58C765.005,404.687 765.855,404.086 766.802,404.086C767.734,404.086 768.573,404.667 768.9,405.54C770.82,410.7 771.81,417.88 777.84,420.13C781.69,421.56 788.33,423.04 791.49,425.39C791.682,425.531 791.796,425.756 791.796,425.994C791.796,426.31 791.597,426.593 791.3,426.7C787.49,428.05 773.86,431.92 772.36,435.46C771.34,437.85 769.83,445.92 767.04,446.79C765.88,447.15 765.11,446.727 764.73,445.52C763.103,440.4 761.76,436.913 760.7,435.06C758.53,431.25 746.56,427.94 742.11,426.55Z" style="fill:rgb(131,131,193);fill-rule:nonzero;"/>
            </g>
            <g transform="matrix(1.46414,0,0,1.46414,-240.927,-237.766)">
                <path d="M262.68,467.22C259.37,460.93 259.63,452.73 251.73,449.75C246.857,447.91 242.097,446.237 237.45,444.73C237.29,444.678 237.144,444.59 237.024,444.473C236.592,444.051 236.586,443.346 237.012,442.91C237.129,442.79 237.272,442.697 237.43,442.64C242.177,440.947 246.87,439.243 251.51,437.53C258.56,434.93 259.87,428.8 261.86,420.63C261.98,420.15 262.287,419.927 262.78,419.96L265.69,420.17C266.103,420.197 266.367,420.413 266.48,420.82C268.88,429.77 269.81,435.39 279.48,438.59C283.427,439.89 287.28,441.293 291.04,442.8C291.379,442.934 291.603,443.263 291.603,443.628C291.603,444.019 291.345,444.367 290.97,444.48C285.223,446.3 279.497,448.48 273.79,451.02C269.82,452.79 267.55,462.94 266.39,466.85C266.141,467.705 265.351,468.297 264.46,468.297C263.714,468.297 263.026,467.881 262.68,467.22Z" style="fill:rgb(131,131,193);fill-rule:nonzero;"/>
            </g>
            <g transform="matrix(1.46414,0,0,1.46414,-240.927,-237.766)">
                <path d="M656.32,538C653.29,524.57 652.22,512.56 646.44,499.09L671.44,468.83C671.47,468.775 671.527,468.74 671.59,468.74C671.683,468.74 671.76,468.817 671.76,468.91C671.76,468.938 671.753,468.965 671.74,468.99C665.3,490.38 661.46,514.84 656.32,538Z" style="fill:rgb(201,208,224);fill-rule:nonzero;"/>
            </g>
            <g transform="matrix(1.46414,0,0,1.46414,-240.927,-237.766)">
                <path d="M465.79,482.78C459.457,493.933 452.123,504.327 443.79,513.96C443.517,514.273 443.26,514.26 443.02,513.92C442.427,513.087 441.947,512.863 441.58,513.25L463.86,482C464.1,481.673 464.377,481.637 464.69,481.89L465.79,482.78Z" style="fill:rgb(201,208,224);fill-rule:nonzero;"/>
            </g>
            <g transform="matrix(1.46414,0,0,1.46414,-240.927,-237.766)">
                <path d="M465.79,482.78L544.21,535.51C544.588,535.763 544.692,536.281 544.44,536.66L521.33,570.54C521.157,570.793 520.943,570.833 520.69,570.66C498.39,555.8 476.263,540.73 454.31,525.45C448.963,521.73 444.61,518.247 441.25,515C440.697,514.473 440.807,513.89 441.58,513.25C441.947,512.863 442.427,513.087 443.02,513.92C443.26,514.26 443.517,514.273 443.79,513.96C452.123,504.327 459.457,493.933 465.79,482.78Z" style="fill:rgb(252,252,254);fill-rule:nonzero;"/>
            </g>
            <g transform="matrix(1.46414,0,0,1.46414,-240.927,-237.766)">
                <path d="M299.89,497.16C299.683,497.115 299.499,496.994 299.37,496.82C298.76,496.02 299.19,495.07 300.09,494.76C301.783,494.187 303.507,493.693 305.26,493.28C305.524,493.222 305.759,493.069 305.92,492.85L310.08,487.26C310.246,487.037 310.508,486.906 310.786,486.906C311.101,486.906 311.394,487.076 311.55,487.35C313.623,490.983 316.663,493.393 320.67,494.58C321.456,494.81 322,495.536 322,496.355C322,497.235 321.373,497.999 320.51,498.17C316.603,498.957 314.003,501.223 312.71,504.97C312.477,505.645 311.837,506.101 311.122,506.101C310.462,506.101 309.861,505.712 309.59,505.11C307.683,500.843 304.45,498.193 299.89,497.16Z" style="fill:rgb(131,131,193);fill-rule:nonzero;"/>
            </g>
            <g transform="matrix(1.46414,0,0,1.46414,-240.927,-237.766)">
                <path d="M646.44,499.09C652.22,512.56 653.29,524.57 656.32,538C653.56,554.5 651.697,564.903 650.73,569.21C647.083,585.39 637.417,596.99 621.73,604.01C621.17,604.263 620.857,604.08 620.79,603.46C618.69,584.193 616.34,564.787 613.74,545.24C613.08,540.22 614.6,538.99 618,534.7C627.493,522.707 636.973,510.837 646.44,499.09Z" style="fill:rgb(252,252,254);fill-rule:nonzero;"/>
            </g>
            <g transform="matrix(1.46414,0,0,1.46414,-240.927,-237.766)">
                <path d="M728.07,522.98C727.75,522.844 727.53,522.54 727.5,522.19C727.43,521.44 728.06,520.58 728.81,520.29C732.897,518.717 735.61,517.437 736.95,516.45C740.16,514.1 741.33,508.26 743.05,504.67C743.121,504.519 743.219,504.384 743.341,504.27C743.869,503.776 744.715,503.807 745.213,504.34C745.328,504.462 745.418,504.604 745.48,504.76C748.52,512.39 749.63,517.52 758.48,519.94C759.667,520.267 760.153,521.14 759.94,522.56C759.887,522.907 759.703,523.157 759.39,523.31L751.85,526.88C750.821,527.372 749.989,528.201 749.49,529.23C748.083,532.137 746.79,535.363 745.61,538.91C745.45,539.39 745.293,539.677 745.14,539.77C744.945,539.899 744.717,539.967 744.484,539.967C744.026,539.967 743.607,539.703 743.41,539.29C742.457,537.283 741.58,535.167 740.78,532.94C738.62,526.89 733.49,525.2 728.07,522.98Z" style="fill:rgb(131,131,193);fill-rule:nonzero;"/>
            </g>
            <g transform="matrix(1.46414,0,0,1.46414,-240.927,-237.766)">
                <path d="M408.27,702.16C407.47,702.487 406.64,703.027 405.78,703.78C375.14,730.71 342.09,756.89 307.11,778C307.076,778.024 307.036,778.036 306.995,778.036C306.885,778.036 306.795,777.946 306.795,777.836C306.795,777.79 306.811,777.746 306.84,777.71C324.69,751.69 338.12,720.24 348.26,690.8C356.5,666.87 361.06,641.43 366.36,616.44C374.29,578.99 387.66,546.51 412.34,517.54C412.62,517.213 412.807,517.257 412.9,517.67C414.647,525.15 418.04,531.78 423.08,537.56C423.313,537.827 423.343,538.113 423.17,538.42C413.217,556.093 405.753,569.967 400.78,580.04C397.78,586.11 403.56,592.87 410.2,589.17C411.567,588.41 413.35,586.197 415.55,582.53C422.483,570.977 429.32,559.36 436.06,547.68C436.207,547.433 436.4,547.393 436.64,547.56L457.09,562.15C457.313,562.314 457.371,562.624 457.22,562.85C443.347,583.777 429.913,604.983 416.92,626.47C414.847,629.897 413.757,631.747 413.65,632.02C411.66,637.15 414.41,643.92 420.82,642.55C423.46,641.98 426.67,638.91 428.2,636.95C444.08,616.623 459.667,596.08 474.96,575.32C475.18,575.02 475.44,574.977 475.74,575.19L495.35,588.94C495.617,589.127 495.65,589.35 495.45,589.61C487.057,600.583 478.42,611.363 469.54,621.95C465.58,626.68 465.12,634.5 472.82,635.36C480.56,636.22 504.51,604.35 509.51,597.51C509.971,596.872 510.803,596.613 511.54,596.88C516.393,598.593 521.377,599.66 526.49,600.08C526.823,600.107 526.917,600.27 526.77,600.57C526.037,602.057 525.43,603.1 524.95,603.7C492.76,643.98 455.53,675.41 413.96,707.51C413.767,707.657 413.59,707.637 413.43,707.45L409.24,702.4C408.973,702.08 408.65,702 408.27,702.16Z" style="fill:rgb(252,252,254);fill-rule:nonzero;"/>
            </g>
            <g transform="matrix(1.46414,0,0,1.46414,-240.927,-237.766)">
                <path d="M256.19,576.81C250.937,574.503 245.707,572.577 240.5,571.03C240.107,570.913 239.835,570.549 239.835,570.139C239.835,569.743 240.087,569.39 240.46,569.26C246.247,567.213 251.667,565.287 256.72,563.48C262.01,561.59 264.08,552.42 265.5,547.6C265.746,546.77 266.493,546.185 267.35,546.15C268.957,546.09 270.04,546.947 270.6,548.72C272.48,554.71 274.33,561.52 280.06,563.55C285.32,565.41 290.53,567.38 295.69,569.46C295.896,569.541 296.033,569.741 296.033,569.963C296.033,570.148 295.937,570.321 295.78,570.42C295.667,570.493 295.533,570.61 295.38,570.77C295.253,570.903 295.107,570.997 294.94,571.05C288.38,573.26 281.47,575.31 275.43,578.73C275.1,578.918 274.849,579.208 274.72,579.55L269.48,593.2C269.194,593.943 268.475,594.436 267.679,594.436C266.864,594.436 266.132,593.919 265.86,593.15C264.64,589.69 263.433,586.257 262.24,582.85C260.94,579.17 259.54,578.29 256.19,576.81Z" style="fill:rgb(131,131,193);fill-rule:nonzero;"/>
            </g>
            <g transform="matrix(1.46414,0,0,1.46414,-240.927,-237.766)">
                <path d="M602.13,677.05C602.071,677.032 602.015,677.007 601.963,676.975C601.632,676.769 601.531,676.324 601.739,675.988C601.77,675.938 601.807,675.891 601.85,675.85C602.117,675.59 602.597,675.343 603.29,675.11C610.457,672.643 615.933,670.52 619.72,668.74C624.42,666.52 626.52,657.69 627.82,653.11C627.935,652.699 628.152,652.325 628.451,652.022C629.421,651.038 631.033,651.03 632.022,652.004C632.325,652.303 632.548,652.673 632.67,653.08C634.55,659.34 636.07,667.68 643.32,670.17C647.993,671.777 652.657,673.48 657.31,675.28C657.361,675.3 657.409,675.328 657.452,675.363C657.687,675.551 657.728,675.897 657.543,676.128C657.508,676.172 657.467,676.209 657.42,676.24C653.72,678.68 638.8,681.25 636.44,687.6C635.007,691.48 633.733,695.253 632.62,698.92C632.388,699.697 631.789,700.311 631.02,700.56C629.7,700.987 628.78,700.45 628.26,698.95C626.04,692.5 624.81,684.75 617.49,682.17C612.497,680.41 607.377,678.703 602.13,677.05Z" style="fill:rgb(131,131,193);fill-rule:nonzero;"/>
            </g>
            <g transform="matrix(1.46414,0,0,1.46414,-240.927,-237.766)">
                <path d="M523.13,719.29C523.016,719.248 522.948,719.129 522.97,719.01C523.023,718.75 523.133,718.493 523.3,718.24C523.427,718.06 523.617,717.92 523.87,717.82C528.53,716.107 533.193,714.393 537.86,712.68C546.79,709.4 546.53,703.31 549.56,694.96C549.674,694.654 549.914,694.41 550.22,694.29C551.77,693.66 553.23,694.14 553.9,695.75C555.88,700.54 556.39,705.34 558.79,708.71C561.64,712.72 571.52,715.06 576.51,716.48C577.783,716.84 578.783,717.393 579.51,718.14C579.555,718.187 579.595,718.239 579.628,718.295C579.864,718.691 579.737,719.208 579.346,719.442C579.29,719.474 579.231,719.501 579.17,719.52C573.35,721.35 564.56,723.67 559.78,727.26C557.05,729.32 554.99,738.09 554.03,741.51C553.838,742.198 553.293,742.735 552.6,742.92C551.18,743.3 550.19,742.727 549.63,741.2C547.443,735.32 545.973,731.597 545.22,730.03C542.64,724.73 529.65,721.55 523.13,719.29Z" style="fill:rgb(131,131,193);fill-rule:nonzero;"/>
            </g>
            <g transform="matrix(1.46414,0,0,1.46414,-240.927,-237.766)">
                <path d="M351.84,830.47C343.62,827.96 342.46,819.12 348.59,813.06C371.983,789.927 387.277,775.06 394.47,768.46C404.84,758.96 420.68,774.42 408.28,785.79C394.287,798.617 380.333,811.493 366.42,824.42C362.33,828.22 357.41,832.17 351.84,830.47Z" style="fill:rgb(57,20,90);fill-rule:nonzero;"/>
            </g>
        </g>
    </g>
</svg>
